<?xml version="1.0" encoding="UTF-8" standalone="no"?>
<!-- Created with Inkscape (http://www.inkscape.org/) -->

<svg
   xmlns:dc="http://purl.org/dc/elements/1.1/"
   xmlns:cc="http://creativecommons.org/ns#"
   xmlns:rdf="http://www.w3.org/1999/02/22-rdf-syntax-ns#"
   xmlns:svg="http://www.w3.org/2000/svg"
   xmlns="http://www.w3.org/2000/svg"
   xmlns:sodipodi="http://sodipodi.sourceforge.net/DTD/sodipodi-0.dtd"
   xmlns:inkscape="http://www.inkscape.org/namespaces/inkscape"
   version="1.1"
   id="svg1116"
   xml:space="preserve"
   width="800"
   height="800"
   viewBox="0 0 800 800"
   sodipodi:docname="bar-chart-3-freesvg.org.svg"
   inkscape:version="0.92.4 (5da689c313, 2019-01-14)"><metadata
     id="metadata1122"><rdf:RDF><cc:Work
         rdf:about=""><dc:format>image/svg+xml</dc:format><dc:type
           rdf:resource="http://purl.org/dc/dcmitype/StillImage" /><dc:title></dc:title></cc:Work></rdf:RDF></metadata><defs
     id="defs1120"><clipPath
       clipPathUnits="userSpaceOnUse"
       id="clipPath1132"><path
         d="M 0,600 H 600 V 0 H 0 Z"
         id="path1130"
         inkscape:connector-curvature="0" /></clipPath></defs><sodipodi:namedview
     pagecolor="#ffffff"
     bordercolor="#666666"
     borderopacity="1"
     objecttolerance="10"
     gridtolerance="10"
     guidetolerance="10"
     inkscape:pageopacity="0"
     inkscape:pageshadow="2"
     inkscape:window-width="1920"
     inkscape:window-height="1018"
     id="namedview1118"
     showgrid="false"
     inkscape:zoom="0.67482428"
     inkscape:cx="691.52542"
     inkscape:cy="477.9661"
     inkscape:window-x="-8"
     inkscape:window-y="-8"
     inkscape:window-maximized="1"
     inkscape:current-layer="g1124" /><g
     id="g1124"
     inkscape:groupmode="layer"
     inkscape:label="chart-5-publicdomainvectors.org [Converted]"
     transform="matrix(1.3333333,0,0,-1.3333333,0,800)"><g
       id="g1126"><g
         id="g1128"
         clip-path="url(#clipPath1132)"><path
           d="m 267.086,247.277 c 0,-6.061 5.341,-11.019 11.868,-11.019 h 2.259 c 6.527,0 11.868,4.958 11.868,11.019 v 260.886 c 0,6.061 -5.341,11.02 -11.868,11.02 h -2.259 c -6.527,0 -11.868,-4.959 -11.868,-11.02 z"
           style="fill:#bfdf14;fill-opacity:1;fill-rule:nonzero;stroke:none"
           id="path1134"
           inkscape:connector-curvature="0" /><path
           d="m 329.461,248.127 c 0,-6.528 -5.341,-11.869 -11.868,-11.869 h -2.259 c -6.527,0 -11.868,5.341 -11.868,11.869 v 281.002 c 0,6.529 5.341,11.87 11.868,11.87 h 2.259 c 6.527,0 11.868,-5.341 11.868,-11.87 z"
           style="fill:#bfdf14;fill-opacity:1;fill-rule:nonzero;stroke:none"
           id="path1136"
           inkscape:connector-curvature="0" /><path
           d="m 227.658,247.358 c 0,-6.105 5.341,-11.1 11.869,-11.1 h 2.258 c 6.528,0 11.869,4.995 11.869,11.1 v 195.269 c 0,6.105 -5.341,11.101 -11.869,11.101 h -2.258 c -6.528,0 -11.869,-4.996 -11.869,-11.101 z"
           style="fill:#bfdf14;fill-opacity:1;fill-rule:nonzero;stroke:none"
           id="path1138"
           inkscape:connector-curvature="0" /><path
           d="m 368.889,248.127 c 0,-6.528 -5.341,-11.869 -11.869,-11.869 h -2.258 c -6.529,0 -11.869,5.341 -11.869,11.869 v 208.79 c 0,6.527 5.34,11.869 11.869,11.869 h 2.258 c 6.528,0 11.869,-5.342 11.869,-11.869 z"
           style="fill:#bfdf14;fill-opacity:1;fill-rule:nonzero;stroke:none"
           id="path1140"
           inkscape:connector-curvature="0" /><path
           d="m 188.229,251.213 c 0,-8.226 5.34,-14.955 11.869,-14.955 h 2.259 c 6.529,0 11.87,6.729 11.87,14.955 v 202.106 c 0,8.224 -5.341,14.954 -11.87,14.954 h -2.259 c -6.529,0 -11.869,-6.73 -11.869,-14.954 z"
           style="fill:#bfdf14;fill-opacity:1;fill-rule:nonzero;stroke:none"
           id="path1142"
           inkscape:connector-curvature="0" /><path
           d="m 408.318,248.127 c 0,-6.528 -5.34,-11.869 -11.869,-11.869 h -2.26 c -6.528,0 -11.869,5.341 -11.869,11.869 v 160.407 c 0,6.528 5.341,11.869 11.869,11.869 h 2.26 c 6.529,0 11.869,-5.341 11.869,-11.869 z"
           style="fill:#bfdf14;fill-opacity:1;fill-rule:nonzero;stroke:none"
           id="path1144"
           inkscape:connector-curvature="0" /><path
           d="m 148.802,249.53 c 0,-7.3 5.341,-13.272 11.868,-13.272 h 2.261 c 6.528,0 11.869,5.972 11.869,13.272 v 130.925 c 0,7.3 -5.341,13.273 -11.869,13.273 h -2.261 c -6.527,0 -11.868,-5.973 -11.868,-13.273 z"
           style="fill:#bfdf14;fill-opacity:1;fill-rule:nonzero;stroke:none"
           id="path1146"
           inkscape:connector-curvature="0" /><path
           d="m 447.745,248.127 c 0,-6.528 -5.341,-11.869 -11.868,-11.869 h -2.261 c -6.528,0 -11.869,5.341 -11.869,11.869 v 117.079 c 0,6.527 5.341,11.869 11.869,11.869 h 2.261 c 6.527,0 11.868,-5.342 11.868,-11.869 z"
           style="fill:#bfdf14;fill-opacity:1;fill-rule:nonzero;stroke:none"
           id="path1148"
           inkscape:connector-curvature="0" /><path
           d="m 109.372,248.127 c 0,-6.528 5.341,-11.869 11.869,-11.869 h 2.26 c 6.528,0 11.869,5.341 11.869,11.869 v 80.971 c 0,6.528 -5.341,11.869 -11.869,11.869 h -2.26 c -6.528,0 -11.869,-5.341 -11.869,-11.869 z"
           style="fill:#bfdf14;fill-opacity:1;fill-rule:nonzero;stroke:none"
           id="path1150"
           inkscape:connector-curvature="0" /><path
           d="m 487.175,248.127 c 0,-6.528 -5.341,-11.869 -11.869,-11.869 h -2.26 c -6.528,0 -11.869,5.341 -11.869,11.869 v 80.971 c 0,6.528 5.341,11.869 11.869,11.869 h 2.26 c 6.528,0 11.869,-5.341 11.869,-11.869 z"
           style="fill:#bfdf14;fill-opacity:1;fill-rule:nonzero;stroke:none"
           id="path1152"
           inkscape:connector-curvature="0" /><path
           d="m 69.944,248.127 c 0,-6.528 5.341,-11.869 11.869,-11.869 h 2.258 c 6.529,0 11.869,5.341 11.869,11.869 v 52.81 c 0,6.528 -5.34,11.869 -11.869,11.869 h -2.258 c -6.528,0 -11.869,-5.341 -11.869,-11.869 z"
           style="fill:#bfdf14;fill-opacity:1;fill-rule:nonzero;stroke:none"
           id="path1154"
           inkscape:connector-curvature="0" /><path
           d="m 526.603,248.127 c 0,-6.528 -5.341,-11.869 -11.87,-11.869 h -2.257 c -6.529,0 -11.87,5.341 -11.87,11.869 v 52.81 c 0,6.528 5.341,11.869 11.87,11.869 h 2.257 c 6.529,0 11.87,-5.341 11.87,-11.869 z"
           style="fill:#bfdf14;fill-opacity:1;fill-rule:nonzero;stroke:none"
           id="path1156"
           inkscape:connector-curvature="0" /></g></g></g></svg>